<svg fill="#F0D928" xmlns="http://www.w3.org/2000/svg" xmlns:xlink="http://www.w3.org/1999/xlink" viewBox="0 0 64 34" version="1.1" x="0px" y="0px"><title>Fish</title><desc>Created with Sketch.</desc><g stroke="none" stroke-width="1" fill="none" fill-rule="evenodd"><g transform="translate(-791.000000, -262.000000)" stroke="#F0D928"><g transform="translate(792.000000, 263.000000)"><path d="M27.3435148,31.7445473 C40.4285305,30.9959978 44.1275655,17.2190031 44.1275655,17.2190031 C44.295793,16.6964613 44.2996854,15.8491399 44.1202651,15.3303977 C44.1202651,15.3303977 40.6228406,2.70874771 28.4338033,0.239526176 C16.2447661,-2.22969536 0.428822452,15.192433 0.428822452,15.192433 C-0.140020598,15.789135 -0.14192479,16.7574668 0.436189747,17.346765 C0.436189747,17.346765 14.2584991,32.4930967 27.3435148,31.7445473 Z" stroke-width="2"></path><circle stroke-width="0.99" fill="#F0D928" cx="16.98" cy="12.98" r="1.98"></circle><path d="M4.30834048,21.0462288 C4.30834048,21.0462288 12.9514448,29.8544999 22.1283405,20.982077" stroke-width="2"></path><path d="M44.4321684,15.4187637 L61.7085198,2.33368932 C61.7085198,2.33368932 63.5238648,14.879272 56.6288641,16.4519666" stroke-width="2" stroke-linecap="round"></path><path d="M44.7161081,29.5598588 L61.7085198,16.4747844 C61.7085198,16.4747844 63.5497661,28.8460689 56.6547654,30.4187635" stroke-width="2" stroke-linecap="round" transform="translate(53.323897, 23.446774) scale(1, -1) translate(-53.323897, -23.446774) "></path></g></g></g></svg>